<svg width="599" height="41" viewBox="0 0 599 41" xmlns="http://www.w3.org/2000/svg"><title>logo.svg</title><g fill="none" fill-rule="evenodd"><path d="M53.756 14.288h-3.06l1.044-5.184c0-.18.108-.54.108-.72 0-1.08-.72-1.656-1.872-1.656-.936 0-1.584.504-1.836 1.62l-1.188 5.94h-5.328l1.044-5.184c.036-.18.108-.54.108-.72 0-1.08-.684-1.656-1.836-1.656-.936 0-1.584.504-1.836 1.62l-1.224 5.94h-3.564c-1.26 0-1.764.612-1.764 1.8 0 1.188.648 1.8 1.764 1.8h2.844l-.972 4.752h-2.484c-1.188 0-1.764.612-1.764 1.764 0 1.224.684 1.8 1.764 1.8h1.764l-.684 3.24c0 .144-.108.648-.108.828 0 1.008.756 1.728 1.872 1.728.972 0 1.656-.648 1.836-1.656l.828-4.14h5.292l-.648 3.24a5.763 5.763 0 0 0-.108.828c0 1.008.756 1.728 1.872 1.728.972 0 1.62-.648 1.8-1.656l.864-4.14h2.844c1.188 0 1.764-.576 1.764-1.8 0-1.152-.72-1.764-1.764-1.764h-2.124l.936-4.752h3.816c1.224 0 1.764-.612 1.764-1.8 0-1.188-.756-1.8-1.764-1.8zm-8.532 8.352h-5.292l.972-4.752h5.292l-.972 4.752zm23.904 9.396c1.728 0 2.736-1.08 2.736-3.276V17.564c0-.18.072-.324.252-.324s.288.144.396.324c1.26 2.088 2.736 4.644 4.824 8.136.648 1.08 1.476 1.62 2.556 1.62.936 0 1.8-.504 2.484-1.62 1.944-3.348 3.132-5.436 4.716-8.1.144-.252.252-.36.432-.36s.252.18.252.396v11.196c0 2.16.9 3.204 2.952 3.204 1.584 0 2.448-1.044 2.448-3.204V10.04c0-2.268-.828-3.456-2.952-3.456-1.44 0-2.376.684-3.672 2.808l-5.868 9.9c-.252.432-.396.576-.648.576-.216 0-.396-.144-.648-.576-2.16-3.456-4.14-6.768-6.192-10.116-1.368-1.98-2.052-2.592-3.708-2.592-1.764 0-2.88 1.188-2.88 3.276l-.072 18.9c0 2.196.9 3.276 2.592 3.276zm44.136-3.816c-.576-.792-.864-1.44-.864-3.42 0-1.08.144-2.988.144-4.68 0-3.672-2.124-6.624-8.028-6.624-5.112 0-7.776 2.628-7.776 5.004 0 1.368.936 2.16 2.196 2.16 1.044 0 1.656-.504 2.124-1.08.792-.828 1.656-1.476 3.24-1.476 1.98 0 3.312.936 3.312 3.096v.828c-.864-.072-1.332-.072-2.196-.072-6.444 0-8.424 2.52-8.424 5.4 0 3.096 2.628 4.968 6.192 4.968 2.124 0 4.356-1.008 5.4-2.448.18.828.432 1.152.828 1.548.468.504.972.792 1.764.792 1.512 0 2.7-1.188 2.7-2.34 0-.612-.324-1.152-.612-1.656zm-9.612.18c-1.476 0-2.268-.504-2.268-1.26 0-.936.72-1.692 4.104-1.692.936 0 1.476.036 2.052.072-.216 1.548-2.016 2.88-3.888 2.88zm24.228-14.148c-.576-.288-1.296-.504-2.52-.504-1.44 0-2.808.792-3.78 2.016-.36-1.116-1.26-1.8-2.304-1.8-1.656 0-2.628 1.116-2.628 2.952v12.06c0 1.944.972 3.024 2.664 3.024 1.728 0 2.844-1.08 2.844-3.024V21.74c.036-1.8 1.26-3.06 2.808-3.06 1.044 0 1.512.36 2.196.36 1.116 0 2.124-.9 2.124-2.556 0-1.08-.648-1.836-1.404-2.232zm19.692 13.32c-.756-.972-1.224-1.548-2.016-2.412-.504-.612-1.044-1.008-1.62-1.224.684-.612 1.584-2.088 3.78-5.688.432-.684.576-1.224.576-1.944 0-1.548-1.296-2.484-2.52-2.484-1.476 0-2.16.648-2.952 2.124-2.808 5.328-3.204 6.084-4.428 6.084-.612 0-1.08 0-1.44-.108V7.304c0-1.908-.756-3.168-2.736-3.168-1.692 0-2.808 1.26-2.808 3.168v21.528c0 2.016 1.116 3.168 2.808 3.168 1.944 0 2.736-.972 2.736-3.168V26.24a8.102 8.102 0 0 1 1.44-.108c.972 0 1.584.252 2.304 1.08.756.864 1.332 1.692 2.088 2.772.792 1.188 1.548 2.16 3.168 2.16 1.548 0 2.484-1.296 2.484-2.34 0-.828-.36-1.476-.864-2.232zM165.32 4.136c-1.872 0-2.772 1.188-2.772 3.024v7.776c-1.08-.684-2.448-1.116-4.068-1.116-4.572 0-8.244 3.276-8.244 9.108 0 6.012 3.672 9.288 8.172 9.288 2.088 0 3.708-.612 4.932-1.584.396.9 1.116 1.368 2.196 1.368 1.62 0 2.556-1.08 2.556-3.06V7.16c0-1.836-1.08-3.024-2.772-3.024zm-6.12 23.508c-2.16 0-3.456-1.764-3.456-4.716 0-2.808 1.296-4.464 3.456-4.464 1.944 0 3.348 1.62 3.348 3.456v2.484c0 1.8-1.404 3.24-3.348 3.24zm21.24 4.644c5.436 0 9.252-3.348 9.252-9.252 0-5.796-3.816-9.216-9.252-9.216-5.4 0-9.18 3.42-9.18 9.216 0 5.904 3.78 9.252 9.18 9.252zm.036-4.68c-2.304 0-3.708-1.692-3.708-4.572 0-2.952 1.404-4.572 3.708-4.572 2.304 0 3.708 1.62 3.708 4.572 0 2.88-1.404 4.572-3.708 4.572zm18.756 4.86c1.836 0 3.42-.756 4.104-3.096.648-2.448 1.188-5.112 1.8-7.38.144-.612.252-.864.468-.864.18 0 .288.252.468.864.576 2.268 1.26 4.932 1.944 7.344.684 2.376 2.376 3.132 4.284 3.132 2.196 0 3.636-1.008 4.284-3.204 1.152-3.816 1.944-6.876 2.916-10.692.216-.828.324-1.62.324-2.052 0-1.512-1.116-2.484-2.772-2.484-1.62 0-2.484 1.008-2.772 2.952-.576 3.168-.9 5.832-1.584 9.072-.072.468-.216.72-.396.72-.216 0-.36-.252-.468-.648-.756-3.204-1.404-5.724-2.124-8.64-.54-2.232-2.124-3.204-4.104-3.204-1.944 0-3.384.972-3.888 3.204-.72 2.916-1.296 5.472-2.088 8.676-.108.432-.252.612-.396.612-.216 0-.396-.216-.432-.648-.72-3.276-1.08-5.94-1.656-9.252-.36-2.196-1.44-2.844-2.736-2.844-1.692 0-2.952.972-2.952 2.628 0 .396.072 1.08.288 1.944.9 3.816 1.8 6.84 2.916 10.656.648 2.16 2.304 3.204 4.572 3.204zm32.94-18.72c-1.8 0-3.636.648-4.896 1.728a2.249 2.249 0 0 0-2.088-1.368c-1.692 0-2.628 1.008-2.628 2.484v12.78c0 1.512 1.008 2.628 2.664 2.628 1.764 0 2.88-1.116 2.88-2.628v-7.668c.036-2.052 1.296-3.132 3.132-3.132 1.548 0 2.844.864 2.844 3.204v7.596c0 1.512.936 2.628 2.736 2.628 1.8 0 2.808-1.116 2.808-2.628v-8.28c0-4.68-2.232-7.344-7.452-7.344zm23.256-7.236c-7.092 0-12.672 4.896-12.672 12.924 0 7.884 5.472 12.888 12.78 12.888 3.024 0 5.508-.972 7.128-2.052 1.224-.792 2.412-1.944 2.412-3.384 0-1.296-1.116-2.412-2.376-2.412-.9 0-1.476.288-2.196.864a7.411 7.411 0 0 1-4.932 1.872c-3.924 0-6.912-2.772-6.912-7.812 0-5.076 2.952-7.776 6.624-7.776 3.24 0 4.716 1.62 5.868 3.636.576.936 1.44 1.512 2.412 1.512 1.368 0 2.736-1.08 2.736-2.7 0-.504-.144-1.08-.396-1.584-1.548-3.348-5.22-5.976-10.476-5.976zm21.492 25.776c5.436 0 9.252-3.348 9.252-9.252 0-5.796-3.816-9.216-9.252-9.216-5.4 0-9.18 3.42-9.18 9.216 0 5.904 3.78 9.252 9.18 9.252zm.036-4.68c-2.304 0-3.708-1.692-3.708-4.572 0-2.952 1.404-4.572 3.708-4.572 2.304 0 3.708 1.62 3.708 4.572 0 2.88-1.404 4.572-3.708 4.572zm33.156-13.968c-1.98 0-4.032.468-5.544 2.52-1.008-1.512-2.952-2.52-5.724-2.52-1.584 0-3.348.36-4.716 1.872-.324-.9-1.08-1.512-2.34-1.512-1.584 0-2.52 1.08-2.52 2.592v12.492c0 1.908.972 2.916 2.628 2.916 1.836 0 2.916-.972 2.916-2.916v-7.776c0-1.728 1.116-2.88 2.736-2.88s2.628.9 2.628 2.772v7.884c0 1.908.936 2.916 2.628 2.916 2.016 0 2.88-.972 2.88-2.916v-7.848c.036-1.728 1.008-2.808 2.772-2.808 1.656 0 2.628.9 2.628 2.772v7.884c0 1.908.972 2.916 2.7 2.916 1.908 0 2.808-.972 2.808-2.916V20.12c0-4.248-2.124-6.48-6.48-6.48zm19.8.18a7.21 7.21 0 0 0-4.788 1.764c-.36-1.044-1.08-1.62-2.268-1.62-1.62 0-2.556 1.08-2.556 3.096v20.772c0 1.836 1.08 3.024 2.772 3.024 1.836 0 2.772-1.188 2.772-3.024v-6.768c1.116.684 2.448 1.152 4.14 1.152 4.5 0 8.172-3.276 8.172-9.288 0-5.832-3.672-9.108-8.244-9.108zm-.72 13.824c-1.944 0-3.348-1.44-3.348-3.24V21.92c0-1.836 1.404-3.456 3.348-3.456 2.16 0 3.456 1.656 3.456 4.464 0 2.952-1.296 4.716-3.456 4.716zm20.592 4.644c5.436 0 9.252-3.348 9.252-9.252 0-5.796-3.816-9.216-9.252-9.216-5.4 0-9.18 3.42-9.18 9.216 0 5.904 3.78 9.252 9.18 9.252zm.036-4.68c-2.304 0-3.708-1.692-3.708-4.572 0-2.952 1.404-4.572 3.708-4.572 2.304 0 3.708 1.62 3.708 4.572 0 2.88-1.404 4.572-3.708 4.572zm21.924-13.86c-1.8 0-3.636.648-4.896 1.728a2.249 2.249 0 0 0-2.088-1.368c-1.692 0-2.628 1.008-2.628 2.484v12.78c0 1.512 1.008 2.628 2.664 2.628 1.764 0 2.88-1.116 2.88-2.628v-7.668c.036-2.052 1.296-3.132 3.132-3.132 1.548 0 2.844.864 2.844 3.204v7.596c0 1.512.936 2.628 2.736 2.628 1.8 0 2.808-1.116 2.808-2.628v-8.28c0-4.68-2.232-7.344-7.452-7.344zm19.332-.072c-5.076 0-8.856 3.42-8.856 9.252 0 5.904 3.888 9.396 9.072 9.396 1.98 0 3.852-.432 5.148-1.26.9-.54 1.548-1.152 1.548-2.16 0-1.008-.576-2.016-2.088-2.016-.54 0-.864.108-1.296.324-.72.396-1.728.72-2.916.72-1.908 0-3.348-.9-3.996-2.592l9.684.036c1.332 0 1.728-.612 1.872-1.44.108-.504.144-1.08.144-1.548 0-5.58-3.168-8.712-8.316-8.712zm0 4.608c2.232 0 3.312 1.224 3.42 3.42h-7.128c.36-2.412 1.728-3.42 3.708-3.42zm21.024-4.536c-1.8 0-3.636.648-4.896 1.728a2.249 2.249 0 0 0-2.088-1.368c-1.692 0-2.628 1.008-2.628 2.484v12.78c0 1.512 1.008 2.628 2.664 2.628 1.764 0 2.88-1.116 2.88-2.628v-7.668c.036-2.052 1.296-3.132 3.132-3.132 1.548 0 2.844.864 2.844 3.204v7.596c0 1.512.936 2.628 2.736 2.628 1.8 0 2.808-1.116 2.808-2.628v-8.28c0-4.68-2.232-7.344-7.452-7.344zm22.068 4.716c1.332 0 2.16-.972 2.16-2.088 0-1.152-.828-2.088-2.16-2.088h-3.564v-1.476c0-1.872-1.044-3.06-2.7-3.06-1.656 0-2.844 1.224-2.844 3.06v1.476h-1.476c-1.044 0-2.16.468-2.16 2.088 0 1.404 1.116 2.088 2.16 2.088h1.476v7.776c0 3.852 2.16 5.832 5.868 5.832 1.224 0 2.268-.144 3.312-.576.684-.288 1.476-.972 1.476-2.16 0-1.44-.792-2.16-1.692-2.16-.324 0-.468 0-.756.072-.288.108-.756.18-1.26.18-.792 0-1.404-.756-1.404-1.98v-6.984h3.564zm19.584 8.568h-8.856V10.004c0-1.872-.9-3.24-2.952-3.24-1.692 0-2.88 1.368-2.88 3.24v18.72c0 1.944 1.152 3.24 2.844 3.276h11.844c1.692 0 2.844-.864 2.844-2.52 0-1.656-1.332-2.448-2.844-2.448zm13.284 5.256c5.436 0 9.252-3.348 9.252-9.252 0-5.796-3.816-9.216-9.252-9.216-5.4 0-9.18 3.42-9.18 9.216 0 5.904 3.78 9.252 9.18 9.252zm.036-4.68c-2.304 0-3.708-1.692-3.708-4.572 0-2.952 1.404-4.572 3.708-4.572 2.304 0 3.708 1.62 3.708 4.572 0 2.88-1.404 4.572-3.708 4.572zm28.08.612c-.576-.792-.864-1.44-.864-3.42 0-1.08.144-2.988.144-4.68 0-3.672-2.124-6.624-8.028-6.624-5.112 0-7.776 2.628-7.776 5.004 0 1.368.936 2.16 2.196 2.16 1.044 0 1.656-.504 2.124-1.08.792-.828 1.656-1.476 3.24-1.476 1.98 0 3.312.936 3.312 3.096v.828c-.864-.072-1.332-.072-2.196-.072-6.444 0-8.424 2.52-8.424 5.4 0 3.096 2.628 4.968 6.192 4.968 2.124 0 4.356-1.008 5.4-2.448.18.828.432 1.152.828 1.548.468.504.972.792 1.764.792 1.512 0 2.7-1.188 2.7-2.34 0-.612-.324-1.152-.612-1.656zm-9.612.18c-1.476 0-2.268-.504-2.268-1.26 0-.936.72-1.692 4.104-1.692.936 0 1.476.036 2.052.072-.216 1.548-2.016 2.88-3.888 2.88zm27.396-24.264c-1.872 0-2.772 1.188-2.772 3.024v7.776c-1.08-.684-2.448-1.116-4.068-1.116-4.572 0-8.244 3.276-8.244 9.108 0 6.012 3.672 9.288 8.172 9.288 2.088 0 3.708-.612 4.932-1.584.396.9 1.116 1.368 2.196 1.368 1.62 0 2.556-1.08 2.556-3.06V7.16c0-1.836-1.08-3.024-2.772-3.024zm-6.12 23.508c-2.16 0-3.456-1.764-3.456-4.716 0-2.808 1.296-4.464 3.456-4.464 1.944 0 3.348 1.62 3.348 3.456v2.484c0 1.8-1.404 3.24-3.348 3.24zm20.916-13.968c-5.076 0-8.856 3.42-8.856 9.252 0 5.904 3.888 9.396 9.072 9.396 1.98 0 3.852-.432 5.148-1.26.9-.54 1.548-1.152 1.548-2.16 0-1.008-.576-2.016-2.088-2.016-.54 0-.864.108-1.296.324-.72.396-1.728.72-2.916.72-1.908 0-3.348-.9-3.996-2.592l9.684.036c1.332 0 1.728-.612 1.872-1.44.108-.504.144-1.08.144-1.548 0-5.58-3.168-8.712-8.316-8.712zm0 4.608c2.232 0 3.312 1.224 3.42 3.42h-7.128c.36-2.412 1.728-3.42 3.708-3.42zm22.644-4.032c-.576-.288-1.296-.504-2.52-.504-1.44 0-2.808.792-3.78 2.016-.36-1.116-1.26-1.8-2.304-1.8-1.656 0-2.628 1.116-2.628 2.952v12.06c0 1.944.972 3.024 2.664 3.024 1.728 0 2.844-1.08 2.844-3.024V21.74c.036-1.8 1.26-3.06 2.808-3.06 1.044 0 1.512.36 2.196.36 1.116 0 2.124-.9 2.124-2.556 0-1.08-.648-1.836-1.404-2.232z" fill="#6A00C9"/><path d="M20.852 3.812c-1.26 0-2.16.9-2.16 2.196 0 1.08.396 1.872.648 4.212.072 1.044.036 2.232.036 2.988 0 .972.576 1.44 1.296 1.44.828 0 1.152-.432 1.476-1.476.324-1.26.936-4.752.936-6.696 0-1.8-.792-2.664-2.232-2.664zm6.192 0c-1.26 0-2.16.9-2.16 2.196 0 1.08.396 1.872.648 4.212.072 1.044.036 2.232.036 2.988 0 .972.612 1.44 1.296 1.44.828 0 1.188-.432 1.476-1.476.324-1.26.936-4.752.936-6.696 0-1.8-.756-2.664-2.232-2.664zm534.672 0c-1.26 0-2.16.9-2.16 2.196 0 1.08.396 1.872.648 4.212.072 1.044.036 2.232.036 2.988 0 .972.612 1.44 1.296 1.44.828 0 1.188-.432 1.476-1.476.324-1.26.936-4.752.936-6.696 0-1.8-.756-2.664-2.232-2.664zm3.888 35.532c.72 0 1.368-.432 1.692-1.368l12.924-34.74c.108-.324.216-.756.216-1.08 0-1.044-.792-1.728-1.98-1.728-.864 0-1.404.612-1.692 1.368l-12.888 34.848a2.954 2.954 0 0 0-.216 1.008c0 1.152 1.008 1.692 1.944 1.692zm-10.08-35.532c-1.26 0-2.16.9-2.16 2.196 0 1.08.396 1.872.648 4.212.072 1.044.036 2.232.036 2.988 0 .972.576 1.44 1.296 1.44.828 0 1.152-.432 1.476-1.476.324-1.26.936-4.752.936-6.696 0-1.8-.792-2.664-2.232-2.664zM13.328 28.148c1.332 0 2.088-.936 2.088-2.124 0-1.116-.612-1.692-2.232-2.268-2.844-1.044-4.14-1.44-6.336-2.268-.432-.144-.684-.324-.684-.612 0-.216.216-.396.684-.576 2.232-.864 3.492-1.296 6.336-2.376 1.62-.576 2.232-1.152 2.232-2.268 0-1.152-.756-2.124-2.088-2.124-.612 0-1.08.108-1.944.504-3.276 1.476-5.076 2.34-8.532 3.888C.98 18.86.008 19.544.008 20.876c0 1.404.972 2.052 2.844 2.952 3.456 1.584 5.184 2.412 8.496 3.816.9.432 1.368.504 1.98.504zm572.076 0c.576 0 1.08-.072 1.98-.504 3.276-1.404 5.04-2.232 8.496-3.816 1.872-.9 2.844-1.548 2.844-2.952 0-1.332-.972-2.016-2.844-2.952-3.456-1.548-5.256-2.412-8.532-3.888-.864-.396-1.368-.504-1.944-.504-1.332 0-2.088.972-2.088 2.124 0 1.116.612 1.692 2.232 2.268 2.844 1.08 4.104 1.512 6.3 2.376.504.18.72.36.72.576 0 .288-.252.468-.72.612-2.16.828-3.456 1.224-6.3 2.268-1.62.576-2.232 1.152-2.232 2.268 0 1.188.756 2.124 2.088 2.124z" fill="#8BC5E3"/></g></svg>