<svg id="Layer_1" data-name="Layer 1" xmlns="http://www.w3.org/2000/svg" viewBox="0 0 32.5791 31.7746"><defs><style>.cls-1{fill:#fff;fill-rule:evenodd;}</style></defs><title>github-logo</title><path class="cls-1" d="M16.288 0a16.29 16.29 0 0 0-5.147 31.747.82.82 0 0 0 1.112-.786c0-.385-.014-1.41-.022-2.77-4.53.985-5.487-2.183-5.487-2.183a4.314 4.314 0 0 0-1.81-2.383c-1.478-1.01.113-.99.113-.99a3.422 3.422 0 0 1 2.495 1.68 3.468 3.468 0 0 0 4.742 1.352 3.48 3.48 0 0 1 1.034-2.177c-3.617-.412-7.42-1.81-7.42-8.052a6.296 6.296 0 0 1 1.677-4.37 5.86 5.86 0 0 1 .16-4.312s1.368-.438 4.48 1.67a15.44 15.44 0 0 1 8.156 0c3.11-2.108 4.474-1.67 4.474-1.67a5.85 5.85 0 0 1 .162 4.31 6.286 6.286 0 0 1 1.674 4.372c0 6.258-3.81 7.635-7.438 8.038a3.888 3.888 0 0 1 1.106 3.017c0 2.177-.02 3.934-.02 4.468a.816.816 0 0 0 1.12.785A16.292 16.292 0 0 0 16.288 0z"/></svg>